# xmcd
#
# Track frame offsets: 
#        150
#        17127
#        34172
#        52381
#        69971
#        87868
#
# Disc length: 1414 seconds
#
# Revision: 0
# Processed by: cddbd v1.5.2PL0 Copyright (c) Steve Scherf et al.
# Submitted via: ExactAudioCopyFreeDBPlugin 1.0
#
DISCID=4b058406
DTITLE=Nate Lee - Plays Well with Others
DYEAR=2017
DGENRE=Bluegrass
TTITLE0=The Junto
TTITLE1=Business
TTITLE2=Jazz Grass Waltz
TTITLE3=My Morning Coffee
TTITLE4=Chinquapin Hunting
TTITLE5=John Stinson's Reel
EXTD=
EXTT0=
EXTT1=
EXTT2=
EXTT3=
EXTT4=
EXTT5=
PLAYORDER=
